# xmcd
#
# Track frame offsets:
#	150
#	13531
#	23526
#	39201
#	48871
#	64431
#	76488
#	87916
#	100445
#	113886
#	122905
#	138371
#	151216
#	162500
#	176548
#	189273
#	202050
#
# Disc length: 2864 seconds
#
# Revision: 0
# Processed by: cddbd v1.5.2PL0 Copyright (c) Steve Scherf et al.
# Submitted via: audiograbber 1.83.01
#
DISCID=db0b2e11
DTITLE=Tony Bennett - 3 Original Hit Albums - Tony
DYEAR=1900
DGENRE=
TTITLE0=IT HAD TO BE YOU
TTITLE1=YOU CAN DEPEND ON ME
TTITLE2=I'M JUST A LUCKY SO AND SO
TTITLE3=TAKING A CHANCE ON LOVE
TTITLE4=THESE FOOLISH THINGS
TTITLE5=I CAN'T GIVE YOU ANYTHING BUT LOVE
TTITLE6=BOULEVARD OF BROKEN DREAMS
TTITLE7=I'LL BE SEEING YOU
TTITLE8=ALWAYS
TTITLE9=LOVE WALKED IN
TTITLE10=LOST IN THE STARS
TTITLE11=WITHOUT A SONG
TTITLE12=SOMEWHERE ALONG THE WAY
TTITLE13=HAVE A GOOD TIME
TTITLE14=HERE IN MY HEART
TTITLE15=ANYWHERE I WANDER
TTITLE16=RAGS TO RICHES
EXTD=
EXTT0=
EXTT1=
EXTT2=
EXTT3=
EXTT4=
EXTT5=
EXTT6=
EXTT7=
EXTT8=
EXTT9=
EXTT10=
EXTT11=
EXTT12=
EXTT13=
EXTT14=
EXTT15=
EXTT16=
PLAYORDER=
